<svg width="36" height="36" viewBox="0 0 36 36" fill="none" xmlns="http://www.w3.org/2000/svg">
  <rect width="36" height="36" rx="8.4" fill="#F7F9FF"/>
  <path d="M11.9 11.2C12.2 10.2 13.2 9.55 14.18 9.78C15.16 10.01 15.7 11.03 15.4 12.03L11.72 24.8C11.43 25.81 10.41 26.45 9.44 26.22C8.46 25.99 7.92 24.98 8.22 23.97L11.9 11.2Z" fill="#2E54FE"/>
  <path d="M14.55 11.62C14.85 10.61 15.88 9.96 16.86 10.19C19.82 10.89 21.34 13.58 20.45 16.61C19.56 19.62 16.76 21.37 13.81 20.68L12.62 20.4L13.72 16.69L14.88 16.96C15.8 17.18 16.65 16.58 16.95 15.56C17.25 14.54 16.84 13.68 15.92 13.47L14.05 13.03L14.55 11.62Z" fill="#2E54FE"/>
  <path d="M25.25 10.72C25.55 9.71 26.58 9.07 27.56 9.3C28.54 9.53 29.08 10.54 28.78 11.55L25.1 24.32C24.81 25.33 23.78 25.98 22.81 25.75C19.84 25.05 18.31 22.35 19.2 19.34C20.09 16.31 22.9 14.57 25.86 15.27L27.05 15.55L25.95 19.26L24.77 18.98C23.85 18.77 23.01 19.37 22.71 20.38C22.41 21.4 22.82 22.27 23.75 22.49L25.62 22.93L25.1 24.32C24.81 25.33 23.78 25.98 22.81 25.75" fill="#2E54FE"/>
  <path d="M19.2 7.82C19.49 6.82 20.51 6.18 21.49 6.41C22.47 6.64 23.01 7.64 22.72 8.65C22.43 9.65 21.4 10.3 20.43 10.07C19.45 9.84 18.91 8.83 19.2 7.82Z" fill="#7CC3CC"/>
</svg>
